<svg id="Layer_1" data-name="Layer 1" xmlns="http://www.w3.org/2000/svg" xmlns:xlink="http://www.w3.org/1999/xlink" viewBox="0 0 173.44 71.5"><defs><style>.cls-1{fill-opacity:0.4;fill:url(#linear-gradient);}.cls-2{fill:none;stroke:#199a8e;}</style><linearGradient id="linear-gradient" x1="421.03" y1="-169.9" x2="421.03" y2="-256.9" gradientTransform="matrix(1, 0, 0, -1, -334.44, -189.39)" gradientUnits="userSpaceOnUse"><stop offset="0" stop-color="#199a8e"/><stop offset="1" stop-color="#fff" stop-opacity="0"/></linearGradient></defs><path class="cls-1" d="M33.09,23.51C18.33,21.24,12.44,21.4.09,28V71h173V-.49c-10.86,4.72-22.63,6.63-34,10C120.73,15,114.07.36,96.59,8c-16,7-13.46,23.72-30,26C51.79,36.06,47.84,25.79,33.09,23.51Z" transform="translate(0.15 0.49)"/><path class="cls-2" d="M.09,46.27c12.35-6.61,21.61-8.19,35.52-6C50.37,42.5,54.29,60.39,69.08,58.35c16.54-2.29,12.75-24.17,27.29-32.22,16.69-9.25,30.55.92,48.91-4.53,11.37-3.38,16.95-7.37,27.81-12.09" transform="translate(0.15 0.49)"/></svg>