<svg id="Layer_1" data-name="Layer 1" xmlns="http://www.w3.org/2000/svg" viewBox="0 0 58 58.19"><defs><style>.cls-1{fill:#199a8e;}.cls-2{fill:#fff;fill-rule:evenodd;}</style></defs><path class="cls-1" d="M12-.19H46a12,12,0,0,1,12,12V46A12,12,0,0,1,46,58H12A12,12,0,0,1,0,46V11.85A12,12,0,0,1,12-.19Z" transform="translate(0 0.19)"/><path class="cls-2" d="M28.8,16.8c7.3-3.72,11.76-1.58,13.63,2.08A16.51,16.51,0,0,1,43.76,28H37l-.89-1.84A1.16,1.16,0,0,0,34.05,26l-.72,1.27-1.48-5.85a1.16,1.16,0,0,0-2.25-.08L28,27.13,27.5,25.2a1.16,1.16,0,0,0-2-.47L22.66,28H13.83a16.61,16.61,0,0,1,1.33-9.07C17,15.22,21.5,13.08,28.8,16.8ZM43.28,30.25c-1.57,5.32-9.63,11.53-14.48,12.38C24,41.77,15.88,35.57,14.32,30.25h8.85a1.16,1.16,0,0,0,.93-.46l1.73-1.94,1.07,4a1.16,1.16,0,0,0,2.23,0l1.55-5.66,1.11,4.42a1.16,1.16,0,0,0,2.15.23L35,29l.27.56a1.14,1.14,0,0,0,1,.66Z" transform="translate(0 0.19)"/></svg>