<svg id="Layer_1" data-name="Layer 1" xmlns="http://www.w3.org/2000/svg" viewBox="0 0 13.57 15"><defs><style>.cls-1{fill:none;stroke:#199a8e;}</style></defs><path class="cls-1" d="M3.64,15a2.72,2.72,0,0,0,2.8-2.63,2.72,2.72,0,0,0-2.8-2.63A2.71,2.71,0,0,0,.85,12.37,2.72,2.72,0,0,0,3.64,15Z" transform="translate(-0.35 -0.5)"/><path class="cls-1" d="M6.32,5.21a2.17,2.17,0,0,0,2.23-2.1A2.17,2.17,0,0,0,6.32,1,2.17,2.17,0,0,0,4.08,3.11,2.17,2.17,0,0,0,6.32,5.21Z" transform="translate(-0.35 -0.5)"/><path class="cls-1" d="M11.19,10.59a2.17,2.17,0,0,0,2.23-2.1,2.18,2.18,0,0,0-2.23-2.11A2.18,2.18,0,0,0,9,8.49,2.17,2.17,0,0,0,11.19,10.59Z" transform="translate(-0.35 -0.5)"/></svg>