<svg id="Layer_1" data-name="Layer 1" xmlns="http://www.w3.org/2000/svg" viewBox="0 0 216 172"><defs><style>.cls-1{fill:#199a8e;}.cls-2{fill:#fff;stroke:#fff;stroke-miterlimit:10;}</style></defs><rect class="cls-1" width="216" height="172"/><path class="cls-2" d="M124.18,115.73a6.44,6.44,0,0,1,2.45.48,6.29,6.29,0,0,1,2,1.36,6.85,6.85,0,0,1,0,9.43l-16.94,17.43a24.06,24.06,0,0,1-34.68,0l-47-48.3A51,51,0,0,1,25,31.52,48.46,48.46,0,0,1,64.51,10.71a47.44,47.44,0,0,1,28.41,9.45,2.47,2.47,0,0,0,1.46.49,2.38,2.38,0,0,0,1.46-.49,47.71,47.71,0,0,1,62.93,5.57,52.59,52.59,0,0,1,7.48,9.84,6.83,6.83,0,0,1-2.15,8,6.35,6.35,0,0,1-3.82,1.29,6.77,6.77,0,0,1-2.91-.69,6.28,6.28,0,0,1-2.24-1.87,39,39,0,0,0-5.65-7.5A35.85,35.85,0,0,0,99,34.93a6.17,6.17,0,0,1-2.08,1.44,6.5,6.5,0,0,1-5.07,0,6,6,0,0,1-2.06-1.46,35.07,35.07,0,0,0-50.5,0,37.49,37.49,0,0,0,0,52l47,48.35a11.31,11.31,0,0,0,16.28-.06l17.1-17.58a6.2,6.2,0,0,1,2-1.39A6.52,6.52,0,0,1,124.18,115.73Z" transform="translate(5 4)"/><path class="cls-2" d="M184.53,69.21a6.7,6.7,0,0,1,0,13.39H165.87a2.53,2.53,0,0,0-1,.2,2.46,2.46,0,0,0-.8.56L148.78,99.19a6.1,6.1,0,0,1-2.06,1.43,6.61,6.61,0,0,1-2.49.52,6.71,6.71,0,0,1-2.61-.66,6.39,6.39,0,0,1-2.08-1.62L114.3,69.29a2.4,2.4,0,0,0-.81-.63,2.5,2.5,0,0,0-1-.24,2.55,2.55,0,0,0-1,.19,2.4,2.4,0,0,0-.84.6L99,81.58A6.25,6.25,0,0,1,96.93,83a6.7,6.7,0,0,1-2.54.51h-18a6.7,6.7,0,0,1,0-13.39H90.69a2.44,2.44,0,0,0,1-.2,2.27,2.27,0,0,0,.8-.56l15.38-15.81c.1-.11.21-.22.31-.31a6,6,0,0,1,2.11-1.37,6.57,6.57,0,0,1,2.52-.44,6.43,6.43,0,0,1,2.49.57,6.26,6.26,0,0,1,2,1.48l25.23,29.57a2.28,2.28,0,0,0,.81.63,2.4,2.4,0,0,0,1,.25,2.62,2.62,0,0,0,1-.2,2.33,2.33,0,0,0,.83-.59l11.16-11.94a6.22,6.22,0,0,1,2.08-1.46,6.46,6.46,0,0,1,2.53-.55Z" transform="translate(5 4)"/><path class="cls-2" d="M123.26,147.66v-5.24l15.84-21.31h8.16l-15.51,21.31-3.79-1.1h26.45v6.34Zm18.09,7.05v-7.05l.24-6.34V135h7.35v19.68Zm32.42.58q-7.14,0-11.18-4t-4-11.37V121.11h7.77v18.53q0,4.8,2,6.91a8.28,8.28,0,0,0,11,0q2-2.12,2-6.91V121.11H189v18.82q0,7.4-4,11.37T173.77,155.29Z" transform="translate(5 4)"/><path class="cls-2" d="M166.9,104.9A8.31,8.31,0,0,1,163,104a6.24,6.24,0,0,1-3.48-5.78,6.62,6.62,0,0,1,.88-3.44,6.44,6.44,0,0,1,2.48-2.35,7.2,7.2,0,0,1,3.52-.86,7.1,7.1,0,0,1,3.41.81,5.94,5.94,0,0,1,2.43,2.31,6.85,6.85,0,0,1,.88,3.57,4.7,4.7,0,0,1,0,.51c0,.17,0,.34-.05.5H162.58V97.13h8.52l-1.44.65a3.63,3.63,0,0,0-.4-1.76,3,3,0,0,0-1.13-1.15,3.18,3.18,0,0,0-1.68-.43,3.34,3.34,0,0,0-1.71.43,2.84,2.84,0,0,0-1.12,1.18,3.54,3.54,0,0,0-.41,1.77v.58a3.8,3.8,0,0,0,.45,1.87A3.26,3.26,0,0,0,165,101.5a5.34,5.34,0,0,0,3.82.09,4.45,4.45,0,0,0,1.44-.93l2,2.16a5.91,5.91,0,0,1-2.23,1.56A8.5,8.5,0,0,1,166.9,104.9Zm14.28,0a6.71,6.71,0,0,1-3.29-.81,6.25,6.25,0,0,1-2.32-2.33,7.77,7.77,0,0,1,0-7,6.13,6.13,0,0,1,2.32-2.31,6.71,6.71,0,0,1,3.29-.81,5.55,5.55,0,0,1,2.86.72,4.73,4.73,0,0,1,1.89,2.18,9,9,0,0,1,.68,3.75A9.43,9.43,0,0,1,186,102a4.59,4.59,0,0,1-1.87,2.18A5.56,5.56,0,0,1,181.18,104.9Zm.65-3.07a3.24,3.24,0,0,0,1.66-.43,3.19,3.19,0,0,0,1.17-1.22,3.84,3.84,0,0,0,.46-1.92,3.69,3.69,0,0,0-.46-1.92,3.15,3.15,0,0,0-1.17-1.23,3.24,3.24,0,0,0-1.66-.43,3.28,3.28,0,0,0-1.68.43,3.23,3.23,0,0,0-1.2,1.23,3.89,3.89,0,0,0-.43,1.92,4.06,4.06,0,0,0,.43,1.92,3.21,3.21,0,0,0,2.88,1.65Zm3.38,2.88v-2.64l.08-3.84-.24-3.81V86.9h3.74v17.81Z" transform="translate(5 4)"/></svg>