<svg id="Layer_1" data-name="Layer 1" xmlns="http://www.w3.org/2000/svg" viewBox="0 0 58.02 58.21"><defs><style>.cls-1{fill:#199a8e;}.cls-2{fill:#fff;}</style></defs><path class="cls-1" d="M0,11.83a12,12,0,0,1,12-12H46a12,12,0,0,1,12,12V46A12,12,0,0,1,46,58H12A12,12,0,0,1,0,46Z" transform="translate(0.02 0.21)"/><path class="cls-2" d="M41.17,19.39a3.72,3.72,0,0,0-2.11.65,3.84,3.84,0,0,0-1.4,1.73A3.87,3.87,0,0,0,38.48,26a3.83,3.83,0,0,0,5.38-5.44A3.74,3.74,0,0,0,41.17,19.39Zm0,5.5a1.64,1.64,0,0,1-1.5-1,1.55,1.55,0,0,1-.09-.95,1.61,1.61,0,0,1,1.28-1.3,1.6,1.6,0,0,1,1.67.7,1.65,1.65,0,0,1,.27.92,1.68,1.68,0,0,1-.47,1.17A1.63,1.63,0,0,1,41.17,24.89ZM29.76,32.73V23.79a1.1,1.1,0,0,0-.32-.78,1.07,1.07,0,0,0-1.53,0,1.1,1.1,0,0,0-.32.78v8.94a4.31,4.31,0,0,0-2.51,1.79,4.43,4.43,0,0,0,.72,5.77,4.31,4.31,0,0,0,5.75,0,4.43,4.43,0,0,0,.72-5.77A4.31,4.31,0,0,0,29.76,32.73Zm-1.09,6.46a2.17,2.17,0,0,1-2-1.36,2.18,2.18,0,0,1,.47-2.39,2.15,2.15,0,0,1,3.34.33,2.21,2.21,0,0,1-.27,2.78A2.17,2.17,0,0,1,28.67,39.19Zm5.44-9.07V18.29a5.53,5.53,0,0,0-1.59-3.89,5.4,5.4,0,0,0-7.69,0,5.53,5.53,0,0,0-1.59,3.89V30.12a8.69,8.69,0,0,0-2.92,4.44,8.85,8.85,0,0,0,3.33,9.61,8.6,8.6,0,0,0,10.05,0A8.85,8.85,0,0,0,37,34.56,8.69,8.69,0,0,0,34.11,30.12ZM28.67,43.59a6.5,6.5,0,0,1-3.86-1.28A6.6,6.6,0,0,1,22.45,39a6.65,6.65,0,0,1,2.5-7.4,1.07,1.07,0,0,0,.34-.39,1.16,1.16,0,0,0,.12-.51V18.29a3.34,3.34,0,0,1,1-2.34A3.25,3.25,0,0,1,31,16a3.34,3.34,0,0,1,1,2.34V30.67a1.08,1.08,0,0,0,.12.5,1.1,1.1,0,0,0,.34.4,6.59,6.59,0,0,1,2.45,3.28A6.74,6.74,0,0,1,34.91,39a6.62,6.62,0,0,1-2.37,3.34A6.44,6.44,0,0,1,28.67,43.59Z" transform="translate(0.02 0.21)"/></svg>