<svg id="Layer_1" data-name="Layer 1" xmlns="http://www.w3.org/2000/svg" xmlns:xlink="http://www.w3.org/1999/xlink" viewBox="0 0 174 72.3"><defs><style>.cls-1{fill:url(#linear-gradient);}.cls-2{fill:none;stroke:#199a8e;stroke-linecap:round;}</style><linearGradient id="linear-gradient" x1="421.34" y1="-189.68" x2="421.34" y2="-262.18" gradientTransform="matrix(1, 0, 0, -1, -334.44, -189.39)" gradientUnits="userSpaceOnUse"><stop offset="0" stop-color="#199a8e"/><stop offset="1" stop-color="#fbebd6" stop-opacity="0"/></linearGradient></defs><path class="cls-1" d="M25.9,31.3C9.4,37.8.4,45.3.4,45.3V72.8h173v-55s-10.56,6.66-19.5,6C135.72,22.45,146.2-.37,117,.52,75.4,1.8,82,33.38,57.9,35.3,44.93,36.32,42.4,24.8,25.9,31.3Z" transform="translate(0.1 -0.5)"/><path class="cls-2" d="M.4,60.52S20.59,46.94,36.9,45.3C49.83,44,54.43,52.91,67.4,51.88,91.53,50,73.47,21.11,112.9,18.3c28-2,20,20.88,38.14,22.22,9,.67,22.36-5,22.36-5" transform="translate(0.1 -0.5)"/></svg>